<?xml version="1.0" encoding="UTF-8"?>
<!DOCTYPE svg PUBLIC "-//W3C//DTD SVG 1.1//EN" "http://www.w3.org/Graphics/SVG/1.1/DTD/svg11.dtd">
<!-- Creator: CorelDRAW Home & Student 2014 -->
<svg xmlns="http://www.w3.org/2000/svg" xml:space="preserve" width="255px" height="83px" version="1.1" style="shape-rendering:geometricPrecision; text-rendering:geometricPrecision; image-rendering:optimizeQuality; fill-rule:evenodd; clip-rule:evenodd"
viewBox="0 0 186 61"
 xmlns:xlink="http://www.w3.org/1999/xlink">
 <defs>
  <style type="text/css">
   <![CDATA[
    .fil1 {fill:none}
    .fil0 {fill:black}
    .fil2 {fill:gray}
   ]]>
  </style>
 </defs>
 <g id="Layer_x0020_1">
  <metadata id="CorelCorpID_0Corel-Layer"/>
  <g id="_391090528">
   <path class="fil0" d="M0 60c15,-4 27,-14 34,-27 6,-9 9,-13 13,-24 7,-15 12,-8 24,-1 7,3 13,7 21,9 1,-1 8,-14 10,-13 1,0 40,22 43,24 13,8 16,9 31,14 3,2 6,3 10,4 0,0 0,0 0,0 0,1 0,1 0,1 -4,-1 -7,-2 -11,-3 -14,-6 -17,-7 -30,-15 -4,-2 -42,-24 -43,-24 -1,0 -8,11 -9,13 -2,3 -20,-8 -23,-9 -11,-7 -15,-14 -22,1 -4,10 -7,14 -13,24 -7,13 -19,23 -34,27 -1,0 -1,-1 -1,-1 0,0 0,0 0,0z"/>
  </g>
  <path class="fil1" d="M1 60c12,-2 28,-15 34,-26 5,-9 9,-14 13,-24 1,-4 6,-12 11,-9 7,5 25,15 33,17 1,0 2,-4 4,-6 8,-11 2,-9 18,-1 13,7 28,16 41,24 2,1 28,11 31,11"/>
  <g id="_196392792">
   <path class="fil0" d="M35 33c9,0 6,1 13,2 4,1 4,1 7,-1 1,0 1,1 1,1 0,0 0,0 0,1 -4,1 -4,1 -9,0 -6,-1 -4,-1 -12,-2 0,0 -1,0 -1,-1 0,0 1,0 1,0z"/>
  </g>
  <path class="fil1" d="M35 33c10,0 10,3 17,3 0,0 3,-1 4,-1"/>
  <g id="_196393632">
   <path class="fil0" d="M57 27c-1,4 -1,14 -1,17 1,-1 3,-2 4,-4 2,-4 6,-4 7,-5 -7,-3 -5,1 -10,-7l0 -1zm-1 -2l0 0 0 0 0 0 0 0 0 0 0 0 0 0 0 0 0 0 0 0 0 0 0 0 0 0 0 0 0 0 0 0 0 0 0 0 0 0 0 0 0 0 0 0 0 0 0 0 0 0 0 0 0 0 0 0 0 0 0 0 0 0 0 0 0 0 0 0 0 0 0 0 0 0 0 0 0 0 0 0 0 0 0 0 0 0 0 0 0 0 0 0 0 0 0 0 0 0 0 0 0 0 0 0 0 0 0 0 0 0 0 0 0 0 0 0 0 0 0 0 0 0 0 0 0 0 0 0 0 0 0 0 0 0 0 0 0 0 0 0 0 0 0 0 0 0 0 0 0 0 0 0 0 0 0 0 0 0 0 0 0 0 0 0 0 0 0 0 0 0 0 0 0 0 0 0 0 0 0 0 0 0 0 0 0 0 0 0 0 0 0 0 0 0 0 0 0 0 0 0 0 0 0 0 0 0 0 0 0 0 0 0 0 0 0 0 0 0 0 0 0 0 0 0 0 0 0 0 0 0 0 0 0 0 0 0 0 0 0 0 0 0 0 0 0 0 0 0 0 0 0 0 0 0 0 0 0 0 0 0 0 0 0 0 0 0 0 0 0 0 0 0 0 0 0 0 0 0 0 0 0 0 0 0 0 0 0 0 0 0 0 0 0 0 0 0 0 0 1 0 0 0 0 0 0 0 0 0 0 0 0 0 0 0 0 0 0 0 0 0 0 0 0 0 0 0 0 0 0 0 0 0 0 0 0 0 0 0 0 0 0 0 0 0 0 0 0 0 0 0 0 0 0 0c0,0 0,0 0,0 2,4 3,6 7,8 10,4 0,3 -3,7 -2,4 -3,3 -5,5 -3,4 0,-19 0,-20z"/>
  </g>
  <path class="fil1" d="M56 25c0,3 -2,22 0,19 0,0 3,-1 5,-4 2,-5 12,-3 3,-6 -5,-2 -6,-7 -8,-9"/>
  <g id="_196394232">
   <path class="fil0" d="M68 35c8,0 4,0 12,-1 1,0 1,1 1,1 0,0 0,1 -1,1 -8,0 -4,0 -12,0 0,0 0,0 0,-1 0,0 0,0 0,0z"/>
  </g>
  <path class="fil1" d="M68 35c4,0 8,0 12,0"/>
  <g id="_196394832">
   <path class="fil0" d="M91 28c-6,0 -12,10 -8,13 4,4 5,7 11,4 7,-4 4,-18 -1,-18 -1,0 -1,0 -2,0 0,0 0,0 0,0 0,0 0,1 0,1zm-1 -1c0,-1 0,-1 0,-1 0,0 1,0 1,0 0,0 1,0 1,0 7,0 10,16 3,20 -7,3 -9,0 -13,-4 -5,-4 2,-15 8,-15z"/>
  </g>
  <path class="fil1" d="M91 27c-6,0 -13,11 -9,14 4,4 5,6 8,6 5,-1 7,-3 8,-8 1,-2 -1,-14 -6,-13 0,0 -1,0 -1,0"/>
  <g id="_196394472">
   <path class="fil0" d="M83 42c4,-4 8,-8 11,-13 0,0 1,-1 1,-1 0,0 1,1 1,1 -4,5 -8,10 -12,14 0,0 -1,0 -1,0 0,0 0,-1 0,-1z"/>
  </g>
  <path class="fil1" d="M84 42c2,-1 11,-12 11,-13"/>
  <g id="_196395216">
   <path class="fil0" d="M84 30c4,4 7,7 11,10 0,0 1,0 1,0 0,1 -1,1 -1,1 -4,-3 -8,-6 -12,-10 0,0 0,0 0,-1 0,0 1,0 1,0z"/>
  </g>
  <path class="fil1" d="M84 31c0,1 11,9 11,9"/>
  <g id="_196396080">
   <path class="fil0" d="M99 35c1,0 10,1 10,0 1,-5 0,-7 -1,-12 0,0 0,0 0,0 1,0 1,0 1,0 2,13 6,14 -10,13 -1,0 -1,0 -1,-1 0,0 0,0 1,0z"/>
  </g>
  <path class="fil1" d="M99 35c2,0 10,1 11,0 1,-5 -2,-8 -2,-12"/>
  <g id="_196397112">
   <path class="fil0" d="M109 19c3,2 3,2 3,6 0,0 0,0 -1,0 0,0 0,0 0,0 0,-3 0,-3 -2,-5 -1,0 -1,0 -1,-1 1,0 1,0 1,0z"/>
  </g>
  <path class="fil1" d="M109 20c3,2 2,2 2,5"/>
  <g id="_196396728">
   <path class="fil0" d="M111 17c3,3 4,3 4,8 0,0 0,1 -1,1 0,0 0,-1 0,-1 0,-5 -1,-4 -4,-8 0,0 0,0 0,0 0,-1 1,0 1,0z"/>
  </g>
  <path class="fil1" d="M110 17c3,3 4,3 4,8"/>
  <g id="_196397808">
   <path class="fil0" d="M113 15c1,2 2,1 4,6 0,2 0,1 0,3 0,1 0,1 0,1 0,0 -1,0 -1,-1 0,-2 0,-1 0,-3 -2,-4 -3,-3 -5,-6 0,0 1,0 1,-1 0,0 0,0 1,1z"/>
  </g>
  <path class="fil1" d="M112 15c1,2 3,3 4,5 0,1 1,1 1,4"/>
  <g id="_196399008">
   <path class="fil2" d="M64 43c1,3 1,2 1,6 0,0 0,0 -1,0 0,0 0,0 0,0 0,-3 0,-3 -1,-6 0,0 0,-1 0,-1 1,0 1,0 1,1z"/>
  </g>
  <path class="fil1" d="M63 43c2,3 1,3 1,6"/>
  <g id="_196399272">
   <path class="fil2" d="M64 42c8,0 4,4 1,4 -1,0 -1,0 -1,0 0,0 0,-1 1,-1 1,0 5,-2 -1,-2 -1,0 -1,0 -1,-1 0,0 0,0 1,0z"/>
  </g>
  <path class="fil1" d="M64 42c7,0 3,4 1,4"/>
  <g id="_196399656">
   <path class="fil2" d="M69 50c0,-12 3,-7 5,0 0,0 0,1 0,1 -1,0 -1,0 -1,-1 -1,-1 -2,-5 -3,-6 0,1 0,6 0,6 0,0 0,0 -1,0 0,0 0,0 0,0z"/>
  </g>
  <path class="fil1" d="M69 50c0,-6 1,-10 4,-2 0,1 0,2 0,2"/>
  <g id="_196399896">
   <path class="fil2" d="M69 46c2,0 1,0 3,0 0,0 1,0 1,1 0,0 -1,0 -1,0 -2,0 -1,0 -3,1 0,0 0,-1 0,-1 0,0 0,-1 0,-1z"/>
  </g>
  <path class="fil1" d="M69 47c1,0 2,0 3,0"/>
  <g id="_196401744">
   <path class="fil2" d="M99 48c0,-8 1,-5 2,-3 3,-5 3,2 3,4 0,0 -1,0 -1,0 0,0 0,0 0,0 0,-1 0,-3 0,-4 -2,2 -1,3 -3,0 0,1 0,3 0,3 0,0 0,0 -1,0 0,0 0,0 0,0z"/>
  </g>
  <path class="fil1" d="M99 48c0,-10 2,1 3,-2 0,-1 2,-4 1,1 0,0 0,2 0,2"/>
  <g id="_196401504">
   <path class="fil2" d="M105 43c0,0 0,0 1,0 0,0 0,0 0,0 0,2 -1,2 -1,1 -1,0 -1,-1 0,-1 0,0 0,0 0,0z"/>
  </g>
  <path class="fil1" d="M105 43c1,1 1,1 1,0"/>
  <g id="_196402704">
   <path class="fil2" d="M106 45c0,1 0,3 0,4 0,0 0,1 -1,1 0,0 0,-1 0,-1 0,-1 0,-3 0,-4 0,0 0,0 0,0 1,0 1,0 1,0z"/>
  </g>
  <path class="fil1" d="M105 45c0,2 0,3 0,4"/>
  <g id="_196402968">
   <path class="fil2" d="M111 43c-2,3 -1,2 -3,5 0,0 -1,0 -1,0 0,0 0,-1 0,-1 2,-3 1,-1 3,-5 0,0 1,0 1,0 0,0 0,1 0,1z"/>
  </g>
  <path class="fil1" d="M111 43c0,0 -4,5 -4,5"/>
  <g id="_196371240">
   <path class="fil2" d="M108 43c1,2 2,3 3,5 0,0 0,0 0,0 -1,0 -1,0 -1,0 -1,-2 -2,-3 -3,-5 0,0 0,0 0,0 1,-1 1,0 1,0z"/>
  </g>
  <path class="fil1" d="M107 43c1,2 3,4 4,5"/>
  <g id="_196379808">
   <path class="fil0" d="M91 47c0,7 0,3 0,10 0,0 0,1 -1,1 0,0 0,-1 0,-1 0,-7 0,-3 -1,-10 0,-1 1,-1 1,-1 0,0 1,0 1,1z"/>
  </g>
  <path class="fil1" d="M90 47c0,3 0,7 0,10"/>
 </g>
</svg>
